<?xml version="1.0" encoding="UTF-8"?>
<svg width="400" height="400" viewBox="0 0 160 160" xmlns="http://www.w3.org/2000/svg">
  <defs>
    <clipPath id="circle-clip">
      <circle cx="80" cy="80" r="80"/>
    </clipPath>
  </defs>
  <g clip-path="url(#circle-clip)">
<svg viewBox="0 0 160 160" xmlns="http://www.w3.org/2000/svg">
        <circle cx="80" cy="80" r="80" fill="#9ac4e0"/>
        <!-- trees/sky hints -->
        <path d="M0 100 Q30 90 60 100 Q90 110 120 98 Q140 92 160 100 L160 160 L0 160Z" fill="#88b0c8" opacity="0.4"/>
        <!-- dark green quilted jacket -->
        <path d="M26 160 Q26 122 50 116 L80 130 L110 116 Q134 122 134 160Z" fill="#3a5a38"/>
        <!-- quilted diamond pattern -->
        <path d="M50 120 L60 132 L50 144" stroke="#2a4a28" stroke-width="1" fill="none"/>
        <path d="M70 118 L80 130 L70 142" stroke="#2a4a28" stroke-width="1" fill="none"/>
        <path d="M90 118 L100 130 L90 142" stroke="#2a4a28" stroke-width="1" fill="none"/>
        <path d="M110 120 L120 132 L110 144" stroke="#2a4a28" stroke-width="1" fill="none"/>
        <!-- neck -->
        <rect x="66" y="110" width="28" height="20" rx="5" fill="#d8a870"/>
        <!-- head -->
        <ellipse cx="80" cy="78" rx="41" ry="44" fill="#d8a870"/>
        <!-- dark brown hair, natural wave on top -->
        <path d="M40 65 Q38 44 56 34 Q68 26 80 28 Q92 26 104 34 Q122 44 120 65 Q112 48 97 44 Q88 38 80 38 Q66 38 55 46 Q46 54 40 65Z" fill="#2a1a0a"/>
        <!-- hair natural movement -->
        <path d="M42 64 Q46 52 52 46 Q46 58 40 68Z" fill="#1a0a00" opacity="0.5"/>
        <!-- beard - solid opaque -->
        <path d="M46 94 Q44 106 52 116 Q60 124 80 126 Q100 124 108 116 Q116 106 114 94 Q104 104 80 106 Q56 104 46 94Z" fill="#3a2818"/>
        <path d="M50 92 Q54 102 60 108 Q70 114 80 114 Q90 114 100 108 Q106 102 110 92" fill="#4a3020" opacity="0.85"/>
        <!-- ears -->
        <ellipse cx="39" cy="82" rx="6" ry="8" fill="#d09860"/>
        <ellipse cx="121" cy="82" rx="6" ry="8" fill="#d09860"/>
        <!-- eyes warm brown, big smile -->
        <ellipse cx="63" cy="76" rx="7.5" ry="7.5" fill="white"/>
        <ellipse cx="97" cy="76" rx="7.5" ry="7.5" fill="white"/>
        <circle cx="63" cy="77" r="4.5" fill="#5a4020"/>
        <circle cx="97" cy="77" r="4.5" fill="#5a4020"/>
        <circle cx="63" cy="76" r="2.2" fill="#1a0a00"/>
        <circle cx="97" cy="76" r="2.2" fill="#1a0a00"/>
        <circle cx="64.5" cy="75" r="1" fill="white"/>
        <circle cx="98.5" cy="75" r="1" fill="white"/>
        <!-- eyebrows dark, strong -->
        <path d="M55 68 Q63 65 71 68" stroke="#1a0a00" stroke-width="3" fill="none" stroke-linecap="round"/>
        <path d="M89 68 Q97 65 105 68" stroke="#1a0a00" stroke-width="3" fill="none" stroke-linecap="round"/>
        <!-- nose -->
        <path d="M76 87 Q80 92 84 87" stroke="#b07838" stroke-width="2" fill="none" stroke-linecap="round"/>
        <!-- huge happy smile showing through beard -->
        <path d="M60 93 Q80 110 100 93" stroke="#884028" stroke-width="2.5" fill="none" stroke-linecap="round"/>
        <path d="M64 97 Q80 110 96 97" fill="white" opacity="0.65"/>
      </svg>
  </g>
</svg>