<?xml version="1.0" encoding="UTF-8"?>
<svg width="400" height="400" viewBox="0 0 160 160" xmlns="http://www.w3.org/2000/svg">
  <defs>
    <clipPath id="circle-clip">
      <circle cx="80" cy="80" r="80"/>
    </clipPath>
  </defs>
  <g clip-path="url(#circle-clip)">
<svg viewBox="0 0 160 160" xmlns="http://www.w3.org/2000/svg">
        <circle cx="80" cy="80" r="80" fill="#fde8c0"/>
        <!-- tuxedo -->
        <path d="M28 160 Q28 122 52 116 L80 128 L108 116 Q132 122 132 160Z" fill="#1a1a2a"/>
        <!-- white shirt -->
        <path d="M68 118 L80 128 L92 118 L88 160 L72 160Z" fill="#f5f5f0"/>
        <!-- bow tie -->
        <path d="M70 116 L75 120 L70 124 Z" fill="#1a1a2a"/>
        <path d="M90 116 L85 120 L90 124 Z" fill="#1a1a2a"/>
        <circle cx="80" cy="120" r="3" fill="#1a1a2a"/>
        <!-- suspenders -->
        <path d="M68 128 L58 116" stroke="#1a1a2a" stroke-width="3" fill="none"/>
        <path d="M92 128 L102 116" stroke="#1a1a2a" stroke-width="3" fill="none"/>
        <!-- boutonniere -->
        <circle cx="62" cy="122" r="4" fill="#e8f0e8"/>
        <circle cx="60" cy="120" r="2" fill="white"/>
        <circle cx="64" cy="119" r="2" fill="white"/>
        <circle cx="62" cy="124" r="1.5" fill="#4a8a4a"/>
        <!-- neck -->
        <rect x="67" y="110" width="26" height="16" rx="5" fill="#f5d5a8"/>
        <!-- head - paler skin -->
        <ellipse cx="80" cy="78" rx="40" ry="44" fill="#f5d5a8"/>
        <!-- dirty blonde hair - ashy/sandy tone -->
        <path d="M42 64 Q40 44 56 35 Q68 28 80 30 Q92 28 104 35 Q120 44 118 64 Q110 46 96 42 Q88 38 80 38 Q65 38 54 44 Q46 52 42 64Z" fill="#b8963c"/>
        <!-- hair texture - slightly darker streaks -->
        <path d="M58 36 Q70 32 80 34 Q72 36 66 40" fill="#9a7828" opacity="0.5"/>
        <path d="M90 32 Q100 36 106 42 Q100 38 92 38" fill="#8a6820" opacity="0.4"/>
        <!-- ears -->
        <ellipse cx="40" cy="82" rx="6" ry="8" fill="#ecc090"/>
        <ellipse cx="120" cy="82" rx="6" ry="8" fill="#ecc090"/>
        <!-- eyes wide happy -->
        <ellipse cx="64" cy="78" rx="7" ry="7.5" fill="white"/>
        <ellipse cx="96" cy="78" rx="7" ry="7.5" fill="white"/>
        <circle cx="64" cy="79" r="4.5" fill="#5a6e40"/>
        <circle cx="96" cy="79" r="4.5" fill="#5a6e40"/>
        <circle cx="64" cy="78" r="2.2" fill="#1a1a1a"/>
        <circle cx="96" cy="78" r="2.2" fill="#1a1a1a"/>
        <circle cx="65.5" cy="77" r="1" fill="white"/>
        <circle cx="97.5" cy="77" r="1" fill="white"/>
        <!-- eyebrows - dirty blonde -->
        <path d="M57 69 Q64 67 71 69" stroke="#8a6c28" stroke-width="2.5" fill="none" stroke-linecap="round"/>
        <path d="M89 69 Q96 67 103 69" stroke="#8a6c28" stroke-width="2.5" fill="none" stroke-linecap="round"/>
        <!-- nose -->
        <path d="M77 87 Q80 91 83 87" stroke="#d4a060" stroke-width="1.5" fill="none" stroke-linecap="round"/>
        <!-- huge wedding day smile -->
        <path d="M60 96 Q80 114 100 96" stroke="#b06030" stroke-width="2" fill="none" stroke-linecap="round"/>
        <path d="M64 100 Q80 113 96 100" fill="white" opacity="0.6"/>
        <!-- cheeks glowing -->
        <ellipse cx="52" cy="88" rx="9" ry="6" fill="#e8a0a0" opacity="0.25"/>
        <ellipse cx="108" cy="88" rx="9" ry="6" fill="#e8a0a0" opacity="0.25"/>
      </svg>
  </g>
</svg>